<?xml version="1.0" encoding="utf-8"?>
<!-- Generator: Adobe Illustrator 22.0.1, SVG Export Plug-In . SVG Version: 6.00 Build 0)  -->
<svg version="1.1" id="Calque_1" xmlns="http://www.w3.org/2000/svg" xmlns:xlink="http://www.w3.org/1999/xlink" x="0px" y="0px"
	 viewBox="0 0 250.8 200.1" style="enable-background:new 0 0 250.8 200.1;" xml:space="preserve">
<style type="text/css">
	.st0{display:none;}
	.st1{display:inline;}
	.st2{font-family:'LiberationMono-Bold';}
	.st3{font-size:300px;}
</style>
<g id="Calque_1_1_" class="st0">
	<text transform="matrix(1 0 0 1 -14.9414 197.6074)" class="st1 st2 st3">J</text>
	<rect x="58.2" y="-25.3" class="st1" width="33" height="264"/>
</g>
<g id="Calque_1_-_copie">
	<g>
		<path d="M91.3,133.3V33.8l0,0v101.9C91.2,135,91.3,134.1,91.3,133.3z"/>
		<path d="M52.1,158.2c-4.4-5.7-7.6-14.3-9.5-25.8L0,138.7c2.9,19.9,10.2,35.2,21.7,45.8c9.6,8.8,21.7,14,36.5,15.5v-36.2
			C56,162.5,54,160.6,52.1,158.2z"/>
		<path d="M91.2,0v33.8l0,0v99.5c0,0.8,0,1.7,0,2.5v61.6c10-2.9,18.5-7.9,25.4-15c11.8-12.1,17.7-28.8,17.7-50.1V0H91.2z"/>
	</g>
</g>
<g id="Calque_3" class="st0">
	<g class="st1">
		<path d="M238.3,62.4c0,13.1-3,24.6-8.9,34.5c-6,9.9-14.6,17.6-25.9,22.9c-11.3,5.4-24.8,8.1-40.5,8.1h-28.9v69.7H91V0h70.3
			c25.1,0,44.2,5.3,57.3,15.9C231.8,26.5,238.3,42,238.3,62.4z M194.8,63.1c0-10.6-3.2-18.2-9.6-22.8c-6.4-4.5-16-6.8-28.8-6.8
			h-22.3v61.1h23.4c12.9,0,22.3-2.7,28.3-8C191.9,81.3,194.8,73.5,194.8,63.1z"/>
	</g>
</g>
<g id="Calque_3_-_copie">
	<g>
		<path d="M218.6,15.9c-12.1-9.7-29.2-15-51.4-15.8v34.1c7.6,1,13.6,3,18,6.2c6.4,4.5,9.6,12.1,9.6,22.8c0,10.4-3,18.2-8.9,23.5
			c-4.4,3.9-10.6,6.4-18.7,7.4v33.8c14-0.4,26.1-3.1,36.3-8c11.3-5.4,19.9-13,25.9-22.9s8.9-21.4,8.9-34.5
			C238.3,42,231.8,26.5,218.6,15.9z"/>
		<rect x="134.2" y="33.5" width="0" height="61.1"/>
		<path d="M134.2,127.9v9.5c0-0.2,0-0.4,0-0.6V127.9L134.2,127.9z"/>
		<path d="M134.2,127.9V94.6l0,0V33.5l0,0V0h-43v33.8l0,0v99.5c0,0.8,0,1.7,0,2.5v61.6c10-2.9,18.5-7.9,25.4-15
			c10.9-11.1,16.7-26.1,17.6-45V127.9L134.2,127.9z"/>
		<path d="M134.2,136.8"/>
		<path d="M134.3,127.9h-0.1"/>
		<line x1="134.2" y1="0" x2="134.3" y2="0"/>
		<line x1="134.3" y1="33.5" x2="134.2" y2="33.5"/>
	</g>
</g>
<g id="Calque_2_1_">
	<g>
		<path d="M250.8,197.6l-35.1-58.5c-1.6,1-3.3,1.9-5.1,2.7c-10,4.8-21.8,7.4-35.3,8l26.9,47.8H250.8z"/>
	</g>
</g>
</svg>
