<?xml version="1.0" encoding="utf-8"?>

<!DOCTYPE svg PUBLIC "-//W3C//DTD SVG 1.1//EN" "http://www.w3.org/Graphics/SVG/1.1/DTD/svg11.dtd">
<!-- Uploaded to: SVG Repo, www.svgrepo.com, Generator: SVG Repo Mixer Tools -->
<svg height="800px" width="800px" version="1.1" id="_x32_" xmlns="http://www.w3.org/2000/svg" xmlns:xlink="http://www.w3.org/1999/xlink" 
	 viewBox="0 0 512 512"  xml:space="preserve">
<g>
	<path class="st0" d="M368,160H48c-26.508,0-48,21.492-48,48v248c0,26.508,21.492,48,48,48h320c26.508,0,48-21.492,48-48V208
		C416,181.492,394.508,160,368,160z M348.664,195c10.492,0,19,8.508,19,19s-8.508,19-19,19s-19-8.508-19-19S338.172,195,348.664,195
		z M278.164,195c10.492,0,19,8.508,19,19s-8.508,19-19,19s-19-8.508-19-19S267.672,195,278.164,195z M207.664,195
		c10.492,0,19,8.508,19,19s-8.508,19-19,19s-19-8.508-19-19S197.172,195,207.664,195z M376,456c0,4.406-3.586,8-8,8H48
		c-4.414,0-8-3.594-8-8V264h336V456z"/>
	<path class="st0" d="M464,8H144c-26.508,0-48,21.492-48,48v56h40h152h184v192v47.282c22.687-3.813,40-23.5,40-47.282V56
		C512,29.492,490.508,8,464,8z M303.664,81c-10.492,0-19-8.508-19-19s8.508-19,19-19s19,8.508,19,19S314.156,81,303.664,81z
		 M374.164,81c-10.492,0-19-8.508-19-19s8.508-19,19-19s19,8.508,19,19S384.656,81,374.164,81z M444.664,81
		c-10.492,0-19-8.508-19-19s8.508-19,19-19s19,8.508,19,19S455.156,81,444.664,81z"/>
</g>
</svg>